# xmcd
#
# Track frame offsets:
# 150
# 21490
# 40327
# 59621
# 81588
# 104059
# 125098
# 130807
# 153911
# 172129
# 179963
# 199611
# 218236
#
# Disc length: 3173 seconds
#
#
# Revision: 0
# Processed by: cddbd v1.5.1PL2 Copyright (c) Steve Scherf et al.
# Submitted via: FreeRIP 2.942 
#
DISCID=d10c630d
DTITLE=Nuno Mindelis - Outros Nunos
DYEAR=2005
DGENRE=Blues
TTITLE0=Tenho Medo(Part. Esp. Rappin´Wood)
TTITLE1=Mas que Nada(Part. Esp. Rappin´Wood)
TTITLE2=Rei dos Reis
TTITLE3=Se eu fosse um dia o teu olhar
TTITLE4=Como dois Animais
TTITLE5=Gosto do Jeito(Part. Esp. Zélia Duncan)
TTITLE6=Siglas
TTITLE7=Nunca se esqueça
TTITLE8=Chove Chuva
TTITLE9=Bossa Folk
TTITLE10=São Paulo
TTITLE11=Não me diga nunca mais
TTITLE12=Fica para o próximo disco
EXTD=
EXTT0=
EXTT1=
EXTT2=
EXTT3=
EXTT4=
EXTT5=
EXTT6=
EXTT7=
EXTT8=
EXTT9=
EXTT10=
EXTT11=
EXTT12=
PLAYORDER=
